HIERARCHY
ROOT Hips
{
	OFFSET 0.00000 0.00000 0.00000
	CHANNELS 6 Xposition Yposition Zposition Zrotation Yrotation Xrotation 
	JOINT LHipJoint
	{
		OFFSET 0 0 0
		CHANNELS 3 Zrotation Yrotation Xrotation
		JOINT LeftUpLeg
		{
			OFFSET 1.34019 -1.87553 0.90315
			CHANNELS 3 Zrotation Yrotation Xrotation
			JOINT LeftLeg
			{
				OFFSET 2.55316 -7.01474 0.00000
				CHANNELS 3 Zrotation Yrotation Xrotation
				JOINT LeftFoot
				{
					OFFSET 2.64657 -7.27139 0.00000
					CHANNELS 3 Zrotation Yrotation Xrotation
					JOINT LeftToeBase
					{
						OFFSET 0.24207 -0.66507 2.14489
						CHANNELS 3 Zrotation Yrotation Xrotation
						End Site
						{
							OFFSET 0.00000 -0.00000 1.12451
						}
					}
				}
			}
		}
	}
	JOINT RHipJoint
	{
		OFFSET 0 0 0
		CHANNELS 3 Zrotation Yrotation Xrotation
		JOINT RightUpLeg
		{
			OFFSET -1.28320 -1.87553 0.90315
			CHANNELS 3 Zrotation Yrotation Xrotation
			JOINT RightLeg
			{
				OFFSET -2.60484 -7.15674 0.00000
				CHANNELS 3 Zrotation Yrotation Xrotation
				JOINT RightFoot
				{
					OFFSET -2.60296 -7.15159 0.00000
					CHANNELS 3 Zrotation Yrotation Xrotation
					JOINT RightToeBase
					{
						OFFSET -0.31082 -0.85398 2.28998
						CHANNELS 3 Zrotation Yrotation Xrotation
						End Site
						{
							OFFSET -0.00000 -0.00000 1.21611
						}
					}
				}
			}
		}
	}
	JOINT LowerBack
	{
		OFFSET 0 0 0
		CHANNELS 3 Zrotation Yrotation Xrotation
		JOINT Spine
		{
			OFFSET -0.00160 2.05581 -0.15156
			CHANNELS 3 Zrotation Yrotation Xrotation
			JOINT Spine1
			{
				OFFSET 0.04594 2.06326 -0.01617
				CHANNELS 3 Zrotation Yrotation Xrotation
				JOINT Neck
				{
					OFFSET 0 0 0
					CHANNELS 3 Zrotation Yrotation Xrotation
					JOINT Neck1
					{
						OFFSET 0.03753 1.73883 0.26751
						CHANNELS 3 Zrotation Yrotation Xrotation
						JOINT Head
						{
							OFFSET -0.09795 1.76129 -0.31794
							CHANNELS 3 Zrotation Yrotation Xrotation
							End Site
							{
								OFFSET -0.03611 1.79987 -0.13846
							}
						}
					}
				}
				JOINT LeftShoulder
				{
					OFFSET 0 0 0
					CHANNELS 3 Zrotation Yrotation Xrotation
					JOINT LeftArm
					{
						OFFSET 3.30667 1.29205 -0.22445
						CHANNELS 3 Zrotation Yrotation Xrotation
						JOINT LeftForeArm
						{
							OFFSET 4.92785 -0.00000 -0.00000
							CHANNELS 3 Zrotation Yrotation Xrotation
							JOINT LeftHand
							{
								OFFSET 3.44052 -0.00000 0.00000
								CHANNELS 3 Zrotation Yrotation Xrotation
								JOINT LeftFingerBase
								{
									OFFSET 0 0 0
									CHANNELS 3 Zrotation Yrotation Xrotation
									JOINT LeftHandIndex1
									{
										OFFSET 0.65433 -0.00000 0.00000
										CHANNELS 3 Zrotation Yrotation Xrotation
										End Site
										{
											OFFSET 0.52753 -0.00000 0.00000
										}
									}
								}
								JOINT LThumb
								{
									OFFSET 0 0 0
									CHANNELS 3 Zrotation Yrotation Xrotation
									End Site
									{
										OFFSET 0.53559 -0.00000 0.53559
									}
								}
							}
						}
					}
				}
				JOINT RightShoulder
				{
					OFFSET 0 0 0
					CHANNELS 3 Zrotation Yrotation Xrotation
					JOINT RightArm
					{
						OFFSET -3.20032 1.49783 -0.27688
						CHANNELS 3 Zrotation Yrotation Xrotation
						JOINT RightForeArm
						{
							OFFSET -5.09181 -0.00000 -0.00000
							CHANNELS 3 Zrotation Yrotation Xrotation
							JOINT RightHand
							{
								OFFSET -3.49865 -0.00000 -0.00000
								CHANNELS 3 Zrotation Yrotation Xrotation
								JOINT RightFingerBase
								{
									OFFSET 0 0 0
									CHANNELS 3 Zrotation Yrotation Xrotation
									JOINT RightHandIndex1
									{
										OFFSET -0.66641 -0.00000 0.00000
										CHANNELS 3 Zrotation Yrotation Xrotation
										End Site
										{
											OFFSET -0.53728 -0.00000 0.00000
										}
									}
								}
								JOINT RThumb
								{
									OFFSET 0 0 0
									CHANNELS 3 Zrotation Yrotation Xrotation
									End Site
									{
										OFFSET -0.54548 -0.00000 0.54548
									}
								}
							}
						}
					}
				}
			}
		}
	}
}
MOTION
Frames: 16
Frame Time: 0.0952381
0.00 0.00 0.00 0 0 0 0 0 0 -21 0 0 0 0 0 0 0 0 0 0 0 0 0 0 21 0 0 0 0 0 0 0 0 0 0 0 0 0 0 0 0 0 0 0 0 0 0 -16 0 0 21 0 0 11 0 0 0 -8 0 0 0 0 0 0 0 0 0 0 0 0 0 0 0 0 0 0 0 0 8 0 0 0 0 0 0 0 0 0 0 0 0 0 0 0 0 0
0.00 0.00 0.00 -2.8287 3.1962 13.1024 0.0000 0.0000 0.0000 -23.1581 -12.4803 -19.6163 3.8646 11.9781 35.6545 0.5493 12.4010 -23.4422 0.0804 -1.8294 -5.0345 0.0000 0.0000 0.0000 12.9244 -0.4526 -27.2091 -17.5981 -19.8611 82.9617 -0.4859 -5.8028 12.4630 -0.1466 2.4678 -6.8004 -0.0311 0.6135 15.5495 3.7526 1.1455 0.0973 3.8044 0.6449 -8.7295 3.9323 0.1111 -22.0526 -5.0833 0.1003 20.1722 -2.4399 -0.2669 10.0706 0.0000 0.0000 0.0000 -84.3986 6.7204 27.9162 19.7758 -30.3712 -5.4175 -0.0000 0.0000 -7.5649 12.4131 -2.5235 -0.5552 -7.1250 0.0000 -0.0000 -10.8445 27.3469 4.7297 0.0000 0.0000 0.0000 81.3716 -9.6941 16.9983 -22.1668 33.1650 -6.6769 0.0000 -0.0000 -13.3870 -16.2199 -1.7908 0.5209 7.1250 -0.0000 -0.0000 8.3011 -31.7750 2.7106
0.00 0.00 0.00 -4.2933 2.2613 16.6240 0.0000 0.0000 0.0000 -19.2956 -13.7355 -31.2251 7.6923 15.8882 51.4465 1.1248 9.1547 -25.2925 0.6804 -5.2741 -14.6919 0.0000 0.0000 0.0000 13.7037 1.6272 -31.1095 -19.3288 -19.9892 88.0373 -0.5168 -5.7558 12.8368 -0.1237 2.2669 -6.2438 0.4790 1.4523 19.2990 3.7214 2.4439 0.0446 3.1411 1.2470 -10.9752 3.9349 0.2623 -24.8496 -4.8303 -0.0210 14.2123 -2.2935 -0.3287 8.4638 0.0000 -0.0000 0.0000 -83.7985 5.8149 28.6126 22.7989 -33.8682 -7.0259 -0.0000 0.0000 -8.7804 14.2476 -4.4091 -1.1183 -7.1250 0.0000 -0.0000 -9.3152 25.4211 4.4707 0.0000 -0.0000 0.0000 79.5164 -5.5300 20.3037 -22.5674 33.6124 -6.8973 0.0000 -0.0000 -12.3456 -16.3166 -0.6127 0.1794 7.1250 -0.0000 -0.0000 8.1129 -30.5624 2.8864
0.00 0.00 0.00 -2.0133 2.0637 19.5267 0.0000 0.0000 0.0000 -20.7545 -12.7306 -30.0715 9.8780 17.3407 59.0798 1.9278 9.1433 -30.8444 1.6598 -8.1184 -23.0742 0.0000 0.0000 0.0000 8.4846 -0.7453 -40.1942 -24.1759 -19.5767 102.2927 -0.4025 -6.1849 11.4445 -0.0593 1.5713 -4.3223 -5.1856 1.9187 19.6397 1.7914 1.5430 -1.1162 4.5102 1.1420 -12.5443 5.7209 1.2685 -26.3783 -3.2822 0.2594 8.4469 -1.9636 0.0101 6.7649 0.0000 0.0000 0.0000 -78.0708 -3.2259 30.9085 23.9779 -35.1408 -7.6938 -0.0000 0.0000 -9.9185 16.5090 -6.5984 -1.9506 -7.1250 0.0000 -0.0000 -7.5328 23.1145 4.0045 0.0000 0.0000 0.0000 76.6329 -4.9732 19.1455 -17.6770 27.7416 -4.3978 0.0000 -0.0000 -7.5180 -16.4976 -0.2395 0.0709 7.1250 -0.0000 -0.0000 7.9382 -30.1794 2.8965
0.00 0.00 0.00 -2.2817 -0.0575 16.6061 0.0000 0.0000 0.0000 -23.3388 -7.9028 -15.7202 5.8063 14.2379 44.1991 1.2365 11.4739 -27.9943 1.6501 -8.0958 -23.0055 0.0000 0.0000 0.0000 4.9160 -2.6894 -41.6291 -26.8792 -18.8253 110.4997 -0.5084 -2.9401 12.7822 -0.1099 2.1380 -5.8871 -6.0728 2.2462 18.2717 1.7454 1.8417 -1.6523 4.8875 1.3518 -12.4412 6.2671 1.6614 -25.8548 -3.2353 0.6564 11.7518 -2.0043 0.2682 7.8166 0.0000 -0.0000 0.0000 -75.0721 1.2691 32.6970 28.0586 -39.1701 -10.1607 -0.0000 0.0000 -10.6985 18.2997 -6.7286 -2.2190 -7.1250 0.0000 -0.0000 -6.2148 22.9074 3.3246 0.0000 -0.0000 0.0000 75.1805 -13.1165 21.2923 -18.5652 28.8749 -4.8191 0.0000 -0.0000 -5.3949 -15.6833 -0.6292 0.1767 7.1250 -0.0000 -0.0000 8.6127 -30.5700 3.0661
0.00 0.00 0.00 -3.7044 -1.8815 13.1918 0.0000 0.0000 0.0000 -24.0271 -3.8723 0.1562 2.3461 9.5525 27.5394 -0.2128 11.8801 -13.5568 1.8474 -8.5407 -24.3688 0.0000 0.0000 0.0000 1.7494 -4.6090 -40.2941 -28.7260 -18.0666 116.3319 -0.5455 2.3683 15.0123 -0.2084 2.9394 -8.1101 -4.4635 2.3098 15.2119 2.3011 2.4822 -1.8955 4.4474 1.5422 -10.9664 6.6331 1.8792 -24.6492 -4.3058 1.1553 14.4979 -2.3843 0.4448 8.5971 0.0000 0.0000 0.0000 -73.3790 6.2435 33.3232 29.8196 -40.7383 -11.2917 -0.0000 0.0000 -9.9946 18.3469 -7.5603 -2.4983 -7.1250 0.0000 -0.0000 -6.1664 22.0359 3.4217 0.0000 0.0000 0.0000 73.8961 -21.7637 22.5472 -20.1359 30.8057 -5.6008 0.0000 -0.0000 -6.3330 -14.5616 -0.2856 0.0742 7.1250 -0.0000 -0.0000 9.4591 -30.2024 3.4588
0.00 0.00 0.00 -4.2267 -2.0799 10.5650 0.0000 0.0000 0.0000 -23.9862 -2.3385 5.6158 1.7390 8.2999 23.6288 -0.0073 6.3393 4.2467 1.6013 -7.9809 -22.6561 0.0000 0.0000 0.0000 1.0699 -5.0584 -36.1417 -28.8936 -17.9868 116.8733 -0.5362 2.9392 15.2158 -0.2118 2.9627 -8.1749 -3.5872 2.1346 13.5379 2.7378 2.5049 -1.6887 4.4493 1.4895 -9.7442 6.9335 1.9383 -23.7883 -5.1579 1.4088 16.0060 -2.7100 0.5075 8.9989 -0.0000 -0.0000 0.0000 -73.2611 9.3944 31.9597 30.1164 -40.9929 -11.4859 -0.0000 0.0000 -9.3356 17.2936 -8.7046 -2.6977 -7.1250 0.0000 -0.0000 -6.9132 20.8987 4.0212 -0.0000 -0.0000 0.0000 73.8568 -25.3069 21.3328 -19.2354 29.7102 -5.1470 0.0000 -0.0000 -7.1549 -14.4491 -0.4918 0.1267 7.1250 -0.0000 -0.0000 9.5680 -30.4109 3.4513
0.00 0.00 0.00 -6.7439 0.6692 6.5668 0.0000 0.0000 0.0000 -20.1545 -1.4824 -1.5683 4.2619 12.5009 37.5280 0.3418 2.2637 10.4922 1.1261 -6.7404 -18.9486 0.0000 0.0000 0.0000 6.5320 -5.0558 -24.7533 -27.3418 -18.6553 111.9395 -0.7436 -1.2712 15.9093 -0.1652 2.6184 -7.2181 -0.0699 1.4568 12.4875 3.9540 2.2748 -1.4491 3.8245 1.2170 -8.7556 6.1628 1.1258 -23.1470 -6.1288 0.9007 18.6248 -3.0438 0.1281 9.7724 0.0000 0.0000 0.0000 -73.4641 14.1234 27.8968 30.1876 -41.0537 -11.5326 -0.0000 0.0000 -10.6348 15.4539 -7.9971 -2.2026 -7.1250 0.0000 -0.0000 -8.2567 21.7186 4.6627 0.0000 0.0000 0.0000 76.2453 -28.9010 13.1395 -15.9675 25.4765 -3.6320 0.0000 -0.0000 -5.7605 -13.4982 -1.5989 0.3838 7.1250 -0.0000 -0.0000 10.4394 -31.5158 3.4936
0.00 0.00 0.00 -9.6238 4.7641 4.4924 0.0000 0.0000 0.0000 -16.1543 -4.1539 -11.4928 1.9042 8.6635 24.7483 0.0780 1.4359 -6.0117 0.8513 -5.8846 -16.4500 0.0000 0.0000 0.0000 15.6848 -6.5554 -10.9043 -22.9973 -19.7832 98.7939 -0.2703 -9.1880 10.5278 -0.1362 2.3790 -6.5543 2.4100 1.2875 11.8688 5.1086 2.4993 -1.4201 3.6239 1.2410 -8.3389 5.7199 0.2568 -24.3293 -6.4356 -0.0633 20.6826 -3.2930 -0.3914 10.6573 -0.0000 0.0000 0.0000 -73.9511 18.2945 22.4225 30.6373 -41.4334 -11.8291 -0.0000 0.0000 -12.2920 16.7762 -5.8687 -1.7656 -7.1250 0.0000 -0.0000 -7.3613 23.8593 3.7847 -0.0000 0.0000 0.0000 79.9894 -28.6161 1.5482 -11.6601 19.2929 -1.9886 0.0000 -0.0000 -0.1403 -13.8446 -1.5940 0.3928 7.1250 -0.0000 -0.0000 10.1649 -31.5190 3.3983
0.00 0.00 0.00 -12.2580 3.0168 -0.4518 0.0000 0.0000 0.0000 -11.5776 -5.3498 -26.4028 3.5810 11.5809 34.2650 -0.2813 9.9767 -7.3710 0.2526 -3.2341 -8.9313 0.0000 0.0000 0.0000 22.4965 -7.4254 -1.9403 -18.9544 -19.9738 86.9415 0.6731 -14.5394 -2.9011 -0.0954 1.9920 -5.4836 3.0908 1.4337 12.5924 5.6548 2.7976 -0.1571 3.7496 1.3688 -7.4023 4.9945 0.3293 -20.4102 -4.1101 -0.0748 22.1743 -2.3169 -0.1132 10.4813 -0.0000 0.0000 0.0000 -74.3449 23.5802 13.3200 30.0718 -40.9549 -11.4567 -0.0000 0.0000 -12.7855 16.9076 -4.9916 -1.5150 -7.1250 0.0000 -0.0000 -7.2977 24.7636 3.5977 -0.0000 0.0000 0.0000 80.4647 -23.7332 6.7694 -11.5865 19.1816 -1.9643 0.0000 0.0000 4.2582 -16.4132 1.6652 -0.4904 7.1250 -0.0000 -0.0000 7.8567 -28.2117 3.2372
0.00 0.00 0.00 -4.8853 2.5251 -0.9495 0.0000 0.0000 0.0000 -21.7186 -9.6437 -21.2151 6.9595 15.2977 48.7210 -0.0935 13.4349 -17.9358 0.2382 -3.1411 -8.6718 0.0000 0.0000 0.0000 19.4038 -2.7789 -21.8883 -14.1583 -19.1613 72.6872 -0.2141 -7.1077 -14.0773 -0.4540 4.3225 -11.9858 0.0341 0.7659 16.4416 4.2382 1.4012 0.7397 4.2323 0.7697 -8.5617 5.5819 1.2046 -20.8190 -5.9014 1.4011 21.9636 -2.8450 0.3838 10.5773 0.0000 0.0000 0.0000 -82.0375 7.0782 16.9470 18.9840 -29.3987 -5.0230 -0.0000 0.0000 -4.2985 18.2376 -8.1270 -2.6670 -7.1250 0.0000 -0.0000 -6.2388 21.4494 3.5459 0.0000 0.0000 0.0000 80.6883 -12.3406 20.3567 -21.2160 32.0796 -6.1643 0.0000 -0.0000 -7.1852 -20.4420 1.9980 -0.7445 7.1250 -0.0000 -0.0000 4.7354 -27.8375 1.9823
0.00 0.00 0.00 -0.4491 5.8253 11.2611 0.0000 0.0000 0.0000 -21.4479 -9.5844 -27.5965 11.0242 17.9469 62.8602 0.9296 0.8577 -18.5477 2.7751 -10.3218 -30.0252 0.0000 0.0000 0.0000 13.0361 -0.7771 -33.7536 -18.6670 -19.9573 86.0999 -0.3106 -13.0753 -21.9679 -0.2958 3.4972 -9.6663 -5.7279 1.4205 17.9079 2.4169 0.9372 -0.3021 5.6908 0.8351 -10.5745 6.0479 0.1940 -24.4341 -3.2100 -1.1397 14.6700 -2.2333 -0.5417 8.4941 -0.0000 -0.0000 0.0000 -74.0007 -1.8970 24.1663 33.2749 -43.5403 -13.6111 -0.0000 0.0000 -7.8951 17.7868 -8.3564 -2.6694 -7.1250 0.0000 -0.0000 -6.5621 21.2340 3.7643 -0.0000 -0.0000 0.0000 77.4743 -4.5239 20.9562 -41.5210 48.9457 -19.5786 0.0000 -0.0000 -11.7330 -22.7683 4.6118 -1.9328 7.1250 -0.0000 -0.0000 2.9182 -24.9799 1.4146
0.00 0.00 0.00 1.4481 3.6684 11.1026 0.0000 0.0000 0.0000 -25.0184 -4.4048 -18.4295 7.9097 16.0524 52.2366 0.9511 2.9590 -19.7154 2.6989 -10.1909 -29.5973 0.0000 0.0000 0.0000 5.4348 -1.1963 -47.5372 -24.1063 -19.5908 102.0852 -0.6274 -8.5462 -20.4302 -0.2475 3.2014 -8.8399 -9.4774 1.4318 17.6927 1.7754 0.0937 -0.7360 7.3717 0.6512 -10.8508 6.9485 1.1380 -24.6446 -3.4953 -0.1189 15.3327 -2.3451 -0.0308 8.8099 -0.0000 0.0000 0.0000 -68.7841 -0.7551 28.6668 37.4720 -46.4988 -16.5815 -0.0000 0.0000 -8.2396 18.8191 -8.7858 -2.9798 -7.1250 0.0000 -0.0000 -5.8146 20.7276 3.3976 -0.0000 0.0000 0.0000 72.0851 -9.9196 26.1856 -57.5141 55.6103 -32.2810 0.0000 -0.0000 -9.2595 -22.0667 5.5237 -2.2346 7.1250 -0.0000 -0.0000 3.4425 -24.0239 1.7458
0.00 0.00 0.00 1.2830 2.2469 9.3245 0.0000 0.0000 0.0000 -26.2504 -0.9518 -5.7650 4.2499 12.4858 37.4729 0.1515 4.5561 -10.4376 3.1073 -10.8668 -31.8318 0.0000 0.0000 0.0000 1.3592 -2.4606 -53.8090 -26.1606 -19.0646 108.2865 -0.5748 -4.5470 -16.7016 -0.2602 3.2816 -9.0636 -9.4893 1.1058 16.1280 1.8599 -0.1920 -1.1678 7.5226 0.5095 -10.3840 7.4484 1.5888 -24.4073 -4.1631 0.5108 17.5636 -2.6007 0.2536 9.5909 -0.0000 -0.0000 0.0000 -66.8580 2.7670 33.1429 38.7290 -47.2986 -17.4994 -0.0000 0.0000 -8.4068 19.0941 -9.5498 -3.2869 -7.1250 0.0000 -0.0000 -5.6179 19.9094 3.3852 -0.0000 -0.0000 0.0000 67.8411 -16.3062 31.1052 -66.8139 57.8679 -40.0640 0.0000 -0.0000 -9.0193 -20.2868 5.0753 -1.8730 7.1250 -0.0000 -0.0000 4.7727 -24.5715 2.3637
0.00 0.00 0.00 0.6804 1.5989 7.4040 0.0000 0.0000 0.0000 -27.1505 -1.9226 3.7043 2.3680 9.5938 27.6712 -0.0192 8.5653 5.6204 3.3353 -11.2190 -33.0221 0.0000 0.0000 0.0000 0.4287 -2.6061 -53.7918 -26.2677 -19.0308 108.6146 -0.3532 -4.6261 -13.8905 -0.1921 2.8228 -7.7857 -8.6424 1.0226 14.7430 2.2107 0.0264 -1.0884 7.3431 0.5293 -9.5337 7.1895 1.5840 -24.1239 -4.4350 0.7051 18.9990 -2.6487 0.3144 10.0655 -0.0000 0.0000 0.0000 -67.4474 5.0523 35.1879 38.1914 -46.9611 -17.1054 -0.0000 0.0000 -7.4984 18.5873 -10.6954 -3.5713 -7.1250 0.0000 -0.0000 -5.9846 18.7448 3.7645 -0.0000 0.0000 0.0000 66.1006 -20.4593 33.2765 -67.1388 57.9301 -40.3392 0.0000 -0.0000 -8.1223 -19.9337 4.7302 -1.7130 7.1250 -0.0000 -0.0000 5.0433 -24.9491 2.4544
0.00 0.00 0.00 0.2526 1.6738 6.0218 0.0000 0.0000 0.0000 -27.9184 -3.8157 8.0875 1.7449 8.3131 23.6692 1.4046 12.4807 21.6616 2.5858 -9.9922 -28.9516 0.0000 0.0000 0.0000 0.6987 -2.4034 -51.6645 -25.7504 -19.1880 107.0348 -0.1525 -6.0905 -11.9933 -0.1258 2.2867 -6.2986 -8.0095 0.8567 13.9565 2.5002 0.0102 -1.0588 7.2859 0.4717 -9.0408 7.1342 1.5788 -23.5427 -4.8507 0.8788 19.7241 -2.7730 0.3530 10.2355 0.0000 -0.0000 0.0000 -68.5740 6.9350 35.4755 37.4180 -46.4635 -16.5424 -0.0000 0.0000 -7.0873 17.9559 -11.0134 -3.5427 -7.1250 0.0000 -0.0000 -6.4318 18.4588 4.0903 0.0000 -0.0000 0.0000 65.5039 -23.0300 34.7374 -64.0678 57.2999 -37.7456 0.0000 -0.0000 -8.7759 -19.8377 3.9158 -1.4113 7.1250 -0.0000 -0.0000 5.1352 -25.8137 2.3957
